# xmcd
#
# Track frame offsets: 
#        150
#        23080
#        50173
#        92791
#        113238
#        131316
#        161990
#        185808
#        212184
#        237923
#
# Disc length: 3412 seconds
#
# Revision: 2
# Processed by: cddbd v1.5.2PL0 Copyright (c) Steve Scherf et al.
# Submitted via: ExactAudioCopy v0.99pb5
#
DISCID=900d520a
DTITLE=Buddy Miles - Blues Berries
DYEAR=2002
DGENRE=Blues
TTITLE0=Tobacco Road
TTITLE1=Big Mama
TTITLE2=Compassion For The Blues
TTITLE3=Live Is What
TTITLE4=Rock and Roll
TTITLE5=Come On Back
TTITLE6=Texas Cannonball
TTITLE7=Bayou Delta
TTITLE8=Miss Suga' Fine
TTITLE9=Down At The Crossroads
EXTD=© 2002\nRuf Records, Catalog 1073
EXTT0=
EXTT1=
EXTT2=
EXTT3=
EXTT4=
EXTT5=
EXTT6=
EXTT7=
EXTT8=
EXTT9=
PLAYORDER=
